# xmcd CD database file
#
# Track frame offsets:
#	150
#	19697
#	44270
#	65736
#	86296
#	110931
#	133029
#	153022
#	171940
#	196462
#
# Disc length: 2817 seconds
#
# Revision: 0
# Processed by: cddbd v1.5.1PL0 Copyright (c) Steve Scherf et al.
# Submitted via: CDex 1.60beta1
#
DISCID=840aff0a
DTITLE=Neo - FLOW
DYEAR=2004
DGENRE=Trance
TTITLE0=悠久の風 -First Field-
TTITLE1=FF4 rydua -優しさの中に秘める心-
TTITLE2=Red Tint -櫻-
TTITLE3=セテバン研究地区 -Biocidal EDEN-
TTITLE4=時の回廊 -Floating cloud-
TTITLE5=約束された勝利の剣 -EMIYA Trance Mix-
TTITLE6=Mi βgestalt -Weltall-
TTITLE7=第二次スーパーロボット大戦α Trombe! -地獄の番犬めんてぃ-
TTITLE8=鳴る高架線 -Battle Stage Mix-
TTITLE9=Not so far away -祭りの終り-
EXTD=YEAR: 2004
EXTT0=
EXTT1=
EXTT2=
EXTT3=
EXTT4=
EXTT5=
EXTT6=
EXTT7=
EXTT8=
EXTT9=
PLAYORDER=
